{
  "accessors": [
    {
      "bufferView": 2,
      "componentType": 5126,
      "count": 65532,
      "max": [
        6.0423994064331055,
        6.8392438888549805,
        3.5281825065612793
      ],
      "min": [
        -1.9969213008880615,
        -1.3545188903808594,
        -4.117410659790039
      ],
      "type": "VEC3"
    },
    {
      "bufferView": 2,
      "byteOffset": 786384,
      "componentType": 5126,
      "count": 65532,
      "max": [
        0.9999938011169434,
        0.9999759197235107,
        0.9999806880950928
      ],
      "min": [
        -0.9999963641166687,
        -0.9999839663505554,
        -0.9999504685401917
      ],
      "type": "VEC3"
    },
    {
      "bufferView": 1,
      "componentType": 5126,
      "count": 65532,
      "max": [
        0.0,
        0.0
      ],
      "min": [
        0.0,
        0.0
      ],
      "type": "VEC2"
    },
    {
      "bufferView": 0,
      "componentType": 5125,
      "count": 388383,
      "type": "SCALAR"
    },
    {
      "bufferView": 2,
      "byteOffset": 1572768,
      "componentType": 5126,
      "count": 43615,
      "max": [
        5.957002639770508,
        6.496862411499023,
        3.4133810997009277
      ],
      "min": [
        -0.9865110516548157,
        -0.940524697303772,
        -4.494080543518066
      ],
      "type": "VEC3"
    },
    {
      "bufferView": 2,
      "byteOffset": 2096148,
      "componentType": 5126,
      "count": 43615,
      "max": [
        0.9999842047691345,
        0.9998515844345093,
        0.9999530911445618
      ],
      "min": [
        -0.9999933242797852,
        -0.999984622001648,
        -0.9999804496765137
      ],
      "type": "VEC3"
    },
    {
      "bufferView": 1,
      "byteOffset": 524256,
      "componentType": 5126,
      "count": 43615,
      "max": [
        0.0,
        0.0
      ],
      "min": [
        0.0,
        0.0
      ],
      "type": "VEC2"
    },
    {
      "bufferView": 0,
      "byteOffset": 1553532,
      "componentType": 5125,
      "count": 257889,
      "type": "SCALAR"
    }
  ],
  "asset": {
    "extras": {
      "author": "Camiliero (https://sketchfab.com/mediendesign22)",
      "license": "CC-BY-4.0 (http://creativecommons.org/licenses/by/4.0/)",
      "source": "https://sketchfab.com/3d-models/sandy-kauer-deborah-hay-circular-feather-9e1c9adbb1814e7096973580bacdb993",
      "title": "Sandy Kauer & Deborah Hay – circular feather"
    },
    "generator": "Sketchfab-12.67.0",
    "version": "2.0"
  },
  "bufferViews": [
    {
      "buffer": 0,
      "byteLength": 2585088,
      "name": "floatBufferViews",
      "target": 34963
    },
    {
      "buffer": 0,
      "byteLength": 873176,
      "byteOffset": 2585088,
      "byteStride": 8,
      "name": "floatBufferViews",
      "target": 34962
    },
    {
      "buffer": 0,
      "byteLength": 2619528,
      "byteOffset": 3458264,
      "byteStride": 12,
      "name": "floatBufferViews",
      "target": 34962
    }
  ],
  "buffers": [
    {
      "byteLength": 6077792,
      "uri": "scene.bin"
    }
  ],
  "images": [
    {
      "uri": "textures/Scene_-_Root_metallicRoughness.png"
    }
  ],
  "materials": [
    {
      "doubleSided": true,
      "name": "Scene_-_Root",
      "pbrMetallicRoughness": {
        "metallicFactor": 0.050495426829268296,
        "metallicRoughnessTexture": {
          "index": 0
        },
        "roughnessFactor": 0.782202743902439
      }
    }
  ],
  "meshes": [
    {
      "name": "Object_0",
      "primitives": [
        {
          "attributes": {
            "NORMAL": 1,
            "POSITION": 0,
            "TEXCOORD_0": 2
          },
          "indices": 3,
          "material": 0,
          "mode": 4
        }
      ]
    },
    {
      "name": "Object_1",
      "primitives": [
        {
          "attributes": {
            "NORMAL": 5,
            "POSITION": 4,
            "TEXCOORD_0": 6
          },
          "indices": 7,
          "material": 0,
          "mode": 4
        }
      ]
    }
  ],
  "nodes": [
    {
      "children": [
        1
      ],
      "matrix": [
        4.95082353515115e-17,
        -0.222965270280838,
        -1.485247060545345e-16,
        0.0,
        -0.222965270280838,
        -4.950823535151147e-17,
        -1.485247060545345e-16,
        0.0,
        1.485247060545345e-16,
        1.485247060545345e-16,
        -0.222965270280838,
        0.0,
        4.7650933265686035,
        1.5397984981536872,
        -3.2252948284149165,
        1.0
      ],
      "name": "Sketchfab_model"
    },
    {
      "children": [
        2,
        3
      ],
      "name": "spin_organic1.stl.cleaner.materialmerger.gles"
    },
    {
      "mesh": 0,
      "name": "Object_2"
    },
    {
      "mesh": 1,
      "name": "Object_3"
    }
  ],
  "samplers": [
    {
      "magFilter": 9729,
      "minFilter": 9987,
      "wrapS": 10497,
      "wrapT": 10497
    }
  ],
  "scene": 0,
  "scenes": [
    {
      "name": "Sketchfab_Scene",
      "nodes": [
        0
      ]
    }
  ],
  "textures": [
    {
      "sampler": 0,
      "source": 0
    }
  ]
}
