{
  "accessors": [
    {
      "bufferView": 2,
      "componentType": 5126,
      "count": 65532,
      "max": [
        1.0800000429153442,
        1.0800000429153442,
        1.0800000429153442
      ],
      "min": [
        -1.0800000429153442,
        -1.0800000429153442,
        -1.0828280448913574
      ],
      "type": "VEC3"
    },
    {
      "bufferView": 2,
      "byteOffset": 786384,
      "componentType": 5126,
      "count": 65532,
      "max": [
        1.0,
        1.0,
        1.0
      ],
      "min": [
        -1.0,
        -1.0,
        -1.0
      ],
      "type": "VEC3"
    },
    {
      "bufferView": 1,
      "componentType": 5126,
      "count": 65532,
      "max": [
        0.84375,
        0.859375
      ],
      "min": [
        -0.09375,
        0.015625
      ],
      "type": "VEC2"
    },
    {
      "bufferView": 0,
      "componentType": 5125,
      "count": 219777,
      "type": "SCALAR"
    },
    {
      "bufferView": 2,
      "byteOffset": 1572768,
      "componentType": 5126,
      "count": 65533,
      "max": [
        1.0800000429153442,
        1.0800000429153442,
        1.0800000429153442
      ],
      "min": [
        -1.0800000429153442,
        -1.0800000429153442,
        -1.0828280448913574
      ],
      "type": "VEC3"
    },
    {
      "bufferView": 2,
      "byteOffset": 2359164,
      "componentType": 5126,
      "count": 65533,
      "max": [
        1.0,
        1.0,
        1.0
      ],
      "min": [
        -1.0,
        -1.0,
        -1.0
      ],
      "type": "VEC3"
    },
    {
      "bufferView": 1,
      "byteOffset": 524256,
      "componentType": 5126,
      "count": 65533,
      "max": [
        0.84375,
        0.859375
      ],
      "min": [
        -0.09418927878141403,
        0.015625
      ],
      "type": "VEC2"
    },
    {
      "bufferView": 0,
      "byteOffset": 879108,
      "componentType": 5125,
      "count": 98943,
      "type": "SCALAR"
    },
    {
      "bufferView": 2,
      "byteOffset": 3145560,
      "componentType": 5126,
      "count": 467,
      "max": [
        1.0800000429153442,
        0.8790000081062317,
        0.8790000081062317
      ],
      "min": [
        1.0800000429153442,
        -0.8790000081062317,
        -0.8790000081062317
      ],
      "type": "VEC3"
    },
    {
      "bufferView": 2,
      "byteOffset": 3151164,
      "componentType": 5126,
      "count": 467,
      "max": [
        1.0,
        5.8209301641909406e-05,
        0.0
      ],
      "min": [
        1.0,
        -5.8209301641909406e-05,
        0.0
      ],
      "type": "VEC3"
    },
    {
      "bufferView": 1,
      "byteOffset": 1048520,
      "componentType": 5126,
      "count": 467,
      "max": [
        0.704625129699707,
        0.720250129699707
      ],
      "min": [
        0.045374978333711624,
        0.060999978333711624
      ],
      "type": "VEC2"
    },
    {
      "bufferView": 0,
      "byteOffset": 1274880,
      "componentType": 5125,
      "count": 759,
      "type": "SCALAR"
    },
    {
      "bufferView": 2,
      "byteOffset": 3156768,
      "componentType": 5126,
      "count": 487,
      "max": [
        1.0,
        1.0,
        1.0
      ],
      "min": [
        -1.0,
        -1.0,
        -1.0
      ],
      "type": "VEC3"
    },
    {
      "bufferView": 2,
      "byteOffset": 3162612,
      "componentType": 5126,
      "count": 487,
      "max": [
        1.0,
        1.0,
        1.0
      ],
      "min": [
        -1.0,
        -1.0,
        -1.0
      ],
      "type": "VEC3"
    },
    {
      "bufferView": 1,
      "byteOffset": 1052256,
      "componentType": 5126,
      "count": 487,
      "max": [
        1.0,
        1.0
      ],
      "min": [
        -0.125,
        -0.125
      ],
      "type": "VEC2"
    },
    {
      "bufferView": 0,
      "byteOffset": 1277916,
      "componentType": 5125,
      "count": 1290,
      "type": "SCALAR"
    }
  ],
  "asset": {
    "extras": {
      "author": "3Dee (https://sketchfab.com/mellydeeis)",
      "license": "CC-BY-4.0 (http://creativecommons.org/licenses/by/4.0/)",
      "source": "https://sketchfab.com/3d-models/art-material-surface-test-cube-1f73536e6ff442998c66a99d82cda2ee",
      "title": "Art Material Surface Test Cube"
    },
    "generator": "Sketchfab-12.67.0",
    "version": "2.0"
  },
  "bufferViews": [
    {
      "buffer": 0,
      "byteLength": 1283076,
      "name": "floatBufferViews",
      "target": 34963
    },
    {
      "buffer": 0,
      "byteLength": 1056152,
      "byteOffset": 1283076,
      "byteStride": 8,
      "name": "floatBufferViews",
      "target": 34962
    },
    {
      "buffer": 0,
      "byteLength": 3168456,
      "byteOffset": 2339228,
      "byteStride": 12,
      "name": "floatBufferViews",
      "target": 34962
    }
  ],
  "buffers": [
    {
      "byteLength": 5507684,
      "uri": "scene.bin"
    }
  ],
  "extensionsUsed": [
    "KHR_materials_clearcoat"
  ],
  "images": [
    {
      "uri": "textures/Material_baseColor.jpeg"
    },
    {
      "uri": "textures/Material_metallicRoughness.png"
    },
    {
      "uri": "textures/Material_001_baseColor.jpeg"
    },
    {
      "uri": "textures/Material_001_metallicRoughness.png"
    },
    {
      "uri": "textures/Material_001_clearcoat.png"
    }
  ],
  "materials": [
    {
      "doubleSided": true,
      "name": "Material",
      "pbrMetallicRoughness": {
        "baseColorFactor": [
          0.4276729559748428,
          0.4276729559748428,
          0.4276729559748428,
          1.0
        ],
        "baseColorTexture": {
          "index": 0
        },
        "metallicFactor": 0.7672955974842768,
        "metallicRoughnessTexture": {
          "index": 1
        },
        "roughnessFactor": 0.41509433962264153
      }
    },
    {
      "doubleSided": true,
      "extensions": {
        "KHR_materials_clearcoat": {
          "clearcoatFactor": 0.9685534591194969,
          "clearcoatRoughnessFactor": 0.018867924528301886,
          "clearcoatTexture": {
            "index": 4
          }
        }
      },
      "name": "Material_001",
      "pbrMetallicRoughness": {
        "baseColorFactor": [
          0.06918238993710692,
          0.06918238993710692,
          0.06918238993710692,
          1.0
        ],
        "baseColorTexture": {
          "index": 2
        },
        "metallicRoughnessTexture": {
          "index": 3
        },
        "roughnessFactor": 0.0
      }
    }
  ],
  "meshes": [
    {
      "name": "Material_001-material",
      "primitives": [
        {
          "attributes": {
            "NORMAL": 1,
            "POSITION": 0,
            "TEXCOORD_0": 2
          },
          "indices": 3,
          "material": 1,
          "mode": 4
        }
      ]
    },
    {
      "name": "Material_001-material",
      "primitives": [
        {
          "attributes": {
            "NORMAL": 5,
            "POSITION": 4,
            "TEXCOORD_0": 6
          },
          "indices": 7,
          "material": 1,
          "mode": 4
        }
      ]
    },
    {
      "name": "Material_001-material",
      "primitives": [
        {
          "attributes": {
            "NORMAL": 9,
            "POSITION": 8,
            "TEXCOORD_0": 10
          },
          "indices": 11,
          "material": 1,
          "mode": 4
        }
      ]
    },
    {
      "name": "Material-material",
      "primitives": [
        {
          "attributes": {
            "NORMAL": 13,
            "POSITION": 12,
            "TEXCOORD_0": 14
          },
          "indices": 15,
          "material": 0,
          "mode": 4
        }
      ]
    }
  ],
  "nodes": [
    {
      "children": [
        1
      ],
      "matrix": [
        1.0,
        0.0,
        0.0,
        0.0,
        0.0,
        2.220446049250313e-16,
        -1.0,
        0.0,
        0.0,
        1.0,
        2.220446049250313e-16,
        0.0,
        0.0,
        0.0,
        0.0,
        1.0
      ],
      "name": "Sketchfab_model"
    },
    {
      "children": [
        2,
        6
      ],
      "name": "Collada visual scene group"
    },
    {
      "children": [
        3,
        4,
        5
      ],
      "name": "Cube_002"
    },
    {
      "mesh": 0,
      "name": "Material_001-material"
    },
    {
      "mesh": 1,
      "name": "Material_001-material"
    },
    {
      "mesh": 2,
      "name": "Material_001-material"
    },
    {
      "children": [
        7
      ],
      "name": "Cube"
    },
    {
      "mesh": 3,
      "name": "Material-material"
    }
  ],
  "samplers": [
    {
      "magFilter": 9729,
      "minFilter": 9987,
      "wrapS": 10497,
      "wrapT": 10497
    }
  ],
  "scene": 0,
  "scenes": [
    {
      "name": "Sketchfab_Scene",
      "nodes": [
        0
      ]
    }
  ],
  "textures": [
    {
      "sampler": 0,
      "source": 0
    },
    {
      "sampler": 0,
      "source": 1
    },
    {
      "sampler": 0,
      "source": 2
    },
    {
      "sampler": 0,
      "source": 3
    },
    {
      "sampler": 0,
      "source": 4
    }
  ]
}
