{
  "accessors": [
    {
      "bufferView": 2,
      "componentType": 5126,
      "count": 17303,
      "max": [
        1.0026500225067139,
        1.002709984779358,
        1.0026299953460693
      ],
      "min": [
        -1.0025999546051025,
        -1.002709984779358,
        -1.0025999546051025
      ],
      "type": "VEC3"
    },
    {
      "bufferView": 2,
      "byteOffset": 207636,
      "componentType": 5126,
      "count": 17303,
      "max": [
        0.99984210729599,
        0.9998223781585693,
        0.9998319745063782
      ],
      "min": [
        -0.9998383522033691,
        -0.9998304843902588,
        -0.9998581409454346
      ],
      "type": "VEC3"
    },
    {
      "bufferView": 3,
      "componentType": 5126,
      "count": 17303,
      "max": [
        1.0,
        0.9999998807907104,
        0.9999998807907104,
        1.0
      ],
      "min": [
        -0.9999990463256836,
        -0.9994457960128784,
        -0.9999995231628418,
        1.0
      ],
      "type": "VEC4"
    },
    {
      "bufferView": 1,
      "componentType": 5126,
      "count": 17303,
      "max": [
        0.9692710041999817,
        0.9980469942092896
      ],
      "min": [
        0.0019531298894435167,
        0.0019531298894435167
      ],
      "type": "VEC2"
    },
    {
      "bufferView": 0,
      "componentType": 5125,
      "count": 86400,
      "type": "SCALAR"
    }
  ],
  "asset": {
    "extras": {
      "author": "outofourlives (https://sketchfab.com/outofourlives)",
      "license": "CC-BY-4.0 (http://creativecommons.org/licenses/by/4.0/)",
      "source": "https://sketchfab.com/3d-models/decorative-sphere-7e5f818281a14d28aa37c541f308e729",
      "title": "Decorative Sphere"
    },
    "generator": "Sketchfab-12.68.0",
    "version": "2.0"
  },
  "bufferViews": [
    {
      "buffer": 0,
      "byteLength": 345600,
      "name": "floatBufferViews",
      "target": 34963
    },
    {
      "buffer": 0,
      "byteLength": 138424,
      "byteOffset": 345600,
      "byteStride": 8,
      "name": "floatBufferViews",
      "target": 34962
    },
    {
      "buffer": 0,
      "byteLength": 415272,
      "byteOffset": 484024,
      "byteStride": 12,
      "name": "floatBufferViews",
      "target": 34962
    },
    {
      "buffer": 0,
      "byteLength": 276848,
      "byteOffset": 899296,
      "byteStride": 16,
      "name": "floatBufferViews",
      "target": 34962
    }
  ],
  "buffers": [
    {
      "byteLength": 1176144,
      "uri": "scene.bin"
    }
  ],
  "images": [
    {
      "uri": "textures/Hex_Sphere_baseColor.jpeg"
    },
    {
      "uri": "textures/Hex_Sphere_metallicRoughness.png"
    },
    {
      "uri": "textures/Hex_Sphere_normal.png"
    }
  ],
  "materials": [
    {
      "doubleSided": true,
      "name": "Hex_Sphere",
      "normalTexture": {
        "index": 2
      },
      "occlusionTexture": {
        "index": 1
      },
      "pbrMetallicRoughness": {
        "baseColorTexture": {
          "index": 0
        },
        "metallicRoughnessTexture": {
          "index": 1
        }
      }
    }
  ],
  "meshes": [
    {
      "name": "defaultMaterial",
      "primitives": [
        {
          "attributes": {
            "NORMAL": 1,
            "POSITION": 0,
            "TANGENT": 2,
            "TEXCOORD_0": 3
          },
          "indices": 4,
          "material": 0,
          "mode": 4
        }
      ]
    }
  ],
  "nodes": [
    {
      "children": [
        1
      ],
      "matrix": [
        1.0,
        0.0,
        0.0,
        0.0,
        0.0,
        2.220446049250313e-16,
        -1.0,
        0.0,
        0.0,
        1.0,
        2.220446049250313e-16,
        0.0,
        0.0,
        0.0,
        0.0,
        1.0
      ],
      "name": "Sketchfab_model"
    },
    {
      "children": [
        2
      ],
      "matrix": [
        1.0,
        0.0,
        0.0,
        0.0,
        0.0,
        -4.371139006309477e-08,
        0.999999999999999,
        0.0,
        0.0,
        -0.999999999999999,
        -4.371139006309477e-08,
        0.0,
        0.0,
        0.0,
        0.0,
        1.0
      ],
      "name": "Collada visual scene group"
    },
    {
      "children": [
        3
      ],
      "name": "Hex_Sphere"
    },
    {
      "mesh": 0,
      "name": "defaultMaterial"
    }
  ],
  "samplers": [
    {
      "magFilter": 9729,
      "minFilter": 9987,
      "wrapS": 10497,
      "wrapT": 10497
    }
  ],
  "scene": 0,
  "scenes": [
    {
      "name": "Sketchfab_Scene",
      "nodes": [
        0
      ]
    }
  ],
  "textures": [
    {
      "sampler": 0,
      "source": 0
    },
    {
      "sampler": 0,
      "source": 1
    },
    {
      "sampler": 0,
      "source": 2
    }
  ]
}
