{
  "accessors": [
    {
      "bufferView": 2,
      "componentType": 5126,
      "count": 642,
      "max": [
        14.87230110168457,
        14.936012268066406,
        15.0
      ],
      "min": [
        -14.872298240661621,
        -14.936012268066406,
        -15.0
      ],
      "type": "VEC3"
    },
    {
      "bufferView": 2,
      "byteOffset": 7704,
      "componentType": 5126,
      "count": 642,
      "max": [
        0.996017336845398,
        0.9966951012611389,
        1.0
      ],
      "min": [
        -0.9960171580314636,
        -0.9966949820518494,
        -1.0
      ],
      "type": "VEC3"
    },
    {
      "bufferView": 3,
      "componentType": 5126,
      "count": 642,
      "max": [
        0.7592443823814392,
        0.9374051690101624,
        0.9891404509544373,
        1.0
      ],
      "min": [
        -0.7592450976371765,
        -0.9374060034751892,
        -0.8120550513267517,
        1.0
      ],
      "type": "VEC4"
    },
    {
      "bufferView": 1,
      "componentType": 5126,
      "count": 642,
      "max": [
        0.9946045875549316,
        0.9979999661445618
      ],
      "min": [
        0.0020000000949949026,
        0.0020000000949949026
      ],
      "type": "VEC2"
    },
    {
      "bufferView": 1,
      "byteOffset": 5136,
      "componentType": 5126,
      "count": 642,
      "max": [
        0.9780798554420471,
        0.9491891860961914
      ],
      "min": [
        0.02191999927163124,
        0.02191999927163124
      ],
      "type": "VEC2"
    },
    {
      "bufferView": 0,
      "componentType": 5125,
      "count": 1632,
      "type": "SCALAR"
    },
    {
      "bufferView": 2,
      "byteOffset": 15408,
      "componentType": 5126,
      "count": 658,
      "max": [
        14.936347961425781,
        14.936012268066406,
        15.0
      ],
      "min": [
        -14.936345100402832,
        -14.936012268066406,
        -15.0
      ],
      "type": "VEC3"
    },
    {
      "bufferView": 2,
      "byteOffset": 23304,
      "componentType": 5126,
      "count": 658,
      "max": [
        0.9981241822242737,
        0.9999978542327881,
        1.0
      ],
      "min": [
        -0.9981240034103394,
        -0.9999977946281433,
        -1.0
      ],
      "type": "VEC3"
    },
    {
      "bufferView": 3,
      "byteOffset": 10272,
      "componentType": 5126,
      "count": 658,
      "max": [
        0.9679374694824219,
        0.7419577836990356,
        0.9906551241874695,
        1.0
      ],
      "min": [
        -0.9679363369941711,
        -0.7419642210006714,
        -0.9780924916267395,
        1.0
      ],
      "type": "VEC4"
    },
    {
      "bufferView": 1,
      "byteOffset": 10272,
      "componentType": 5126,
      "count": 658,
      "max": [
        0.9979999661445618,
        0.9978992342948914
      ],
      "min": [
        0.0020000000949949026,
        0.0020000000949949026
      ],
      "type": "VEC2"
    },
    {
      "bufferView": 0,
      "byteOffset": 6528,
      "componentType": 5125,
      "count": 1632,
      "type": "SCALAR"
    },
    {
      "bufferView": 2,
      "byteOffset": 31200,
      "componentType": 5126,
      "count": 324,
      "max": [
        15.0,
        15.0,
        15.0
      ],
      "min": [
        -15.0,
        -15.0,
        -15.0
      ],
      "type": "VEC3"
    },
    {
      "bufferView": 2,
      "byteOffset": 35088,
      "componentType": 5126,
      "count": 324,
      "max": [
        1.0,
        1.0,
        1.0
      ],
      "min": [
        -1.0,
        -1.0,
        -1.0
      ],
      "type": "VEC3"
    },
    {
      "bufferView": 3,
      "byteOffset": 20800,
      "componentType": 5126,
      "count": 324,
      "max": [
        1.0,
        0.9999999403953552,
        0.999994158744812,
        1.0
      ],
      "min": [
        -0.9999895691871643,
        -0.9999999403953552,
        -0.590384840965271,
        1.0
      ],
      "type": "VEC4"
    },
    {
      "bufferView": 1,
      "byteOffset": 15536,
      "componentType": 5126,
      "count": 324,
      "max": [
        0.9979999661445618,
        0.9969789981842041
      ],
      "min": [
        0.0020000000949949026,
        0.0020000000949949026
      ],
      "type": "VEC2"
    },
    {
      "bufferView": 0,
      "byteOffset": 13056,
      "componentType": 5125,
      "count": 1080,
      "type": "SCALAR"
    },
    {
      "bufferView": 4,
      "componentType": 5126,
      "count": 2,
      "max": [
        3.3333332538604736
      ],
      "min": [
        0.0
      ],
      "type": "SCALAR"
    },
    {
      "bufferView": 5,
      "componentType": 5126,
      "count": 2,
      "max": [
        0.0,
        0.0,
        0.0
      ],
      "min": [
        0.0,
        0.0,
        0.0
      ],
      "type": "VEC3"
    },
    {
      "bufferView": 4,
      "byteOffset": 8,
      "componentType": 5126,
      "count": 2,
      "max": [
        3.3333332538604736
      ],
      "min": [
        0.0
      ],
      "type": "SCALAR"
    },
    {
      "bufferView": 5,
      "byteOffset": 24,
      "componentType": 5126,
      "count": 2,
      "max": [
        0.6250000596046448,
        0.6250000596046448,
        0.6250000596046448
      ],
      "min": [
        0.6250000596046448,
        0.6250000596046448,
        0.6250000596046448
      ],
      "type": "VEC3"
    },
    {
      "bufferView": 4,
      "byteOffset": 16,
      "componentType": 5126,
      "count": 101,
      "max": [
        3.3333332538604736
      ],
      "min": [
        0.0
      ],
      "type": "SCALAR"
    },
    {
      "bufferView": 6,
      "componentType": 5126,
      "count": 101,
      "max": [
        1.4264683659000015e-14,
        1.4210854715202004e-14,
        1.0,
        1.0
      ],
      "min": [
        -6.9473777859069275e-15,
        -1.211622524587095e-14,
        -0.8501353859901428,
        -0.4881156086921692
      ],
      "type": "VEC4"
    },
    {
      "bufferView": 4,
      "byteOffset": 420,
      "componentType": 5126,
      "count": 58,
      "max": [
        3.3333332538604736
      ],
      "min": [
        0.0
      ],
      "type": "SCALAR"
    },
    {
      "bufferView": 5,
      "byteOffset": 48,
      "componentType": 5126,
      "count": 58,
      "max": [
        2.7755575615628914e-17,
        5.551115123125783e-17,
        0.0
      ],
      "min": [
        -5.551115123125783e-17,
        -5.551115123125783e-17,
        -2.7755575615628914e-17
      ],
      "type": "VEC3"
    },
    {
      "bufferView": 4,
      "byteOffset": 652,
      "componentType": 5126,
      "count": 2,
      "max": [
        3.3333332538604736
      ],
      "min": [
        0.0
      ],
      "type": "SCALAR"
    },
    {
      "bufferView": 5,
      "byteOffset": 744,
      "componentType": 5126,
      "count": 2,
      "max": [
        0.7999999523162842,
        0.7999999523162842,
        0.7999999523162842
      ],
      "min": [
        0.7999999523162842,
        0.7999999523162842,
        0.7999999523162842
      ],
      "type": "VEC3"
    },
    {
      "bufferView": 4,
      "byteOffset": 660,
      "componentType": 5126,
      "count": 101,
      "max": [
        3.3333332538604736
      ],
      "min": [
        0.0
      ],
      "type": "SCALAR"
    },
    {
      "bufferView": 6,
      "byteOffset": 1616,
      "componentType": 5126,
      "count": 101,
      "max": [
        0.49901339411735535,
        1.0,
        0.5,
        1.0
      ],
      "min": [
        -0.5000000596046448,
        -0.4999997913837433,
        -0.49901336431503296,
        -0.4999997317790985
      ],
      "type": "VEC4"
    },
    {
      "bufferView": 4,
      "byteOffset": 1064,
      "componentType": 5126,
      "count": 2,
      "max": [
        3.3333332538604736
      ],
      "min": [
        0.0
      ],
      "type": "SCALAR"
    },
    {
      "bufferView": 5,
      "byteOffset": 768,
      "componentType": 5126,
      "count": 2,
      "max": [
        -0.423309326171875,
        0.0,
        0.0003204345703125
      ],
      "min": [
        -0.423309326171875,
        0.0,
        0.0003204345703125
      ],
      "type": "VEC3"
    },
    {
      "bufferView": 4,
      "byteOffset": 1072,
      "componentType": 5126,
      "count": 2,
      "max": [
        3.3333332538604736
      ],
      "min": [
        0.0
      ],
      "type": "SCALAR"
    },
    {
      "bufferView": 5,
      "byteOffset": 792,
      "componentType": 5126,
      "count": 2,
      "max": [
        1.0,
        1.0,
        1.0
      ],
      "min": [
        1.0,
        1.0,
        1.0
      ],
      "type": "VEC3"
    },
    {
      "bufferView": 4,
      "byteOffset": 1080,
      "componentType": 5126,
      "count": 101,
      "max": [
        3.3333332538604736
      ],
      "min": [
        0.0
      ],
      "type": "SCALAR"
    },
    {
      "bufferView": 6,
      "byteOffset": 3232,
      "componentType": 5126,
      "count": 101,
      "max": [
        0.7071067690849304,
        0.7071067690849304,
        9.415696666792428e-08,
        0.7071067690849304
      ],
      "min": [
        -0.7071067690849304,
        -0.7071067690849304,
        -9.415696666792428e-08,
        -0.48404794931411743
      ],
      "type": "VEC4"
    }
  ],
  "animations": [
    {
      "channels": [
        {
          "sampler": 0,
          "target": {
            "node": 8,
            "path": "translation"
          }
        },
        {
          "sampler": 1,
          "target": {
            "node": 8,
            "path": "scale"
          }
        },
        {
          "sampler": 2,
          "target": {
            "node": 8,
            "path": "rotation"
          }
        },
        {
          "sampler": 3,
          "target": {
            "node": 6,
            "path": "translation"
          }
        },
        {
          "sampler": 4,
          "target": {
            "node": 6,
            "path": "scale"
          }
        },
        {
          "sampler": 5,
          "target": {
            "node": 6,
            "path": "rotation"
          }
        },
        {
          "sampler": 6,
          "target": {
            "node": 4,
            "path": "translation"
          }
        },
        {
          "sampler": 7,
          "target": {
            "node": 4,
            "path": "scale"
          }
        },
        {
          "sampler": 8,
          "target": {
            "node": 4,
            "path": "rotation"
          }
        }
      ],
      "name": "Take 001",
      "samplers": [
        {
          "input": 16,
          "interpolation": "LINEAR",
          "output": 17
        },
        {
          "input": 18,
          "interpolation": "LINEAR",
          "output": 19
        },
        {
          "input": 20,
          "interpolation": "LINEAR",
          "output": 21
        },
        {
          "input": 22,
          "interpolation": "LINEAR",
          "output": 23
        },
        {
          "input": 24,
          "interpolation": "LINEAR",
          "output": 25
        },
        {
          "input": 26,
          "interpolation": "LINEAR",
          "output": 27
        },
        {
          "input": 28,
          "interpolation": "LINEAR",
          "output": 29
        },
        {
          "input": 30,
          "interpolation": "LINEAR",
          "output": 31
        },
        {
          "input": 32,
          "interpolation": "LINEAR",
          "output": 33
        }
      ]
    }
  ],
  "asset": {
    "extras": {
      "author": "deecube1 (https://sketchfab.com/deecube1)",
      "license": "CC-BY-4.0 (http://creativecommons.org/licenses/by/4.0/)",
      "source": "https://sketchfab.com/3d-models/abstract-sphere-a525fc48c1d245e2883241e344773aa4",
      "title": "Abstract sphere"
    },
    "generator": "Sketchfab-12.68.0",
    "version": "2.0"
  },
  "bufferViews": [
    {
      "buffer": 0,
      "byteLength": 17376,
      "name": "floatBufferViews",
      "target": 34963
    },
    {
      "buffer": 0,
      "byteLength": 18128,
      "byteOffset": 17376,
      "byteStride": 8,
      "name": "floatBufferViews",
      "target": 34962
    },
    {
      "buffer": 0,
      "byteLength": 38976,
      "byteOffset": 35504,
      "byteStride": 12,
      "name": "floatBufferViews",
      "target": 34962
    },
    {
      "buffer": 0,
      "byteLength": 25984,
      "byteOffset": 74480,
      "byteStride": 16,
      "name": "floatBufferViews",
      "target": 34962
    },
    {
      "buffer": 0,
      "byteLength": 1484,
      "byteOffset": 100464,
      "name": "floatBufferViews"
    },
    {
      "buffer": 0,
      "byteLength": 816,
      "byteOffset": 101948,
      "byteStride": 12,
      "name": "floatBufferViews"
    },
    {
      "buffer": 0,
      "byteLength": 4848,
      "byteOffset": 102764,
      "byteStride": 16,
      "name": "floatBufferViews"
    }
  ],
  "buffers": [
    {
      "byteLength": 107612,
      "uri": "scene.bin"
    }
  ],
  "extensionsRequired": [
    "KHR_materials_pbrSpecularGlossiness"
  ],
  "extensionsUsed": [
    "KHR_materials_pbrSpecularGlossiness"
  ],
  "images": [
    {
      "uri": "textures/RootNode_diffuse.jpeg"
    },
    {
      "uri": "textures/RootNode_specularGlossiness.png"
    },
    {
      "uri": "textures/RootNode_normal.jpeg"
    },
    {
      "uri": "textures/RootNode_occlusion.png"
    }
  ],
  "materials": [
    {
      "doubleSided": true,
      "extensions": {
        "KHR_materials_pbrSpecularGlossiness": {
          "diffuseFactor": [
            1.0,
            1.0,
            1.0,
            1.0
          ],
          "diffuseTexture": {
            "index": 0
          },
          "glossinessFactor": 1.0,
          "specularFactor": [
            1.0,
            1.0,
            1.0
          ],
          "specularGlossinessTexture": {
            "index": 1
          }
        }
      },
      "name": "RootNode",
      "normalTexture": {
        "index": 2
      },
      "occlusionTexture": {
        "index": 3
      }
    }
  ],
  "meshes": [
    {
      "name": "S1__0",
      "primitives": [
        {
          "attributes": {
            "NORMAL": 1,
            "POSITION": 0,
            "TANGENT": 2,
            "TEXCOORD_0": 3,
            "TEXCOORD_1": 4
          },
          "indices": 5,
          "material": 0,
          "mode": 4
        }
      ]
    },
    {
      "name": "S2__0",
      "primitives": [
        {
          "attributes": {
            "NORMAL": 7,
            "POSITION": 6,
            "TANGENT": 8,
            "TEXCOORD_0": 9
          },
          "indices": 10,
          "material": 0,
          "mode": 4
        }
      ]
    },
    {
      "name": "S3__0",
      "primitives": [
        {
          "attributes": {
            "NORMAL": 12,
            "POSITION": 11,
            "TANGENT": 13,
            "TEXCOORD_0": 14
          },
          "indices": 15,
          "material": 0,
          "mode": 4
        }
      ]
    }
  ],
  "nodes": [
    {
      "children": [
        1
      ],
      "matrix": [
        1.0,
        0.0,
        0.0,
        0.0,
        0.0,
        2.220446049250313e-16,
        -1.0,
        0.0,
        0.0,
        1.0,
        2.220446049250313e-16,
        0.0,
        0.0,
        0.0,
        0.0,
        1.0
      ],
      "name": "Sketchfab_model"
    },
    {
      "children": [
        2
      ],
      "matrix": [
        1.0,
        0.0,
        0.0,
        0.0,
        0.0,
        0.0,
        1.0,
        0.0,
        0.0,
        -1.0,
        0.0,
        0.0,
        0.0,
        0.0,
        0.0,
        1.0
      ],
      "name": "65feb8d5067b4128bde007edea05f073.fbx"
    },
    {
      "children": [
        3
      ],
      "name": "Object_2"
    },
    {
      "children": [
        4
      ],
      "name": "RootNode"
    },
    {
      "children": [
        5,
        6
      ],
      "name": "S1",
      "rotation": [
        -0.70710688829422,
        1.0677013762006027e-07,
        1.0677017314719706e-07,
        0.7071066498756409
      ],
      "translation": [
        -0.423309326171875,
        0.0,
        0.0003204345703125
      ]
    },
    {
      "mesh": 0,
      "name": "S1__0"
    },
    {
      "children": [
        7,
        8
      ],
      "name": "S2",
      "rotation": [
        1.509957741063772e-07,
        9.599268537170691e-15,
        -2.384185791015625e-07,
        1.0
      ],
      "scale": [
        0.7999999523162842,
        0.7999999523162842,
        0.7999999523162842
      ],
      "translation": [
        0.0,
        0.0,
        -1.3877787807814457e-17
      ]
    },
    {
      "mesh": 1,
      "name": "S2__0"
    },
    {
      "children": [
        9
      ],
      "name": "S3",
      "rotation": [
        1.4210854715202004e-14,
        2.710505067706656e-21,
        -5.6843415472676226e-15,
        1.0
      ],
      "scale": [
        0.6250000596046448,
        0.6250000596046448,
        0.6250000596046448
      ]
    },
    {
      "mesh": 2,
      "name": "S3__0"
    }
  ],
  "samplers": [
    {
      "magFilter": 9729,
      "minFilter": 9987,
      "wrapS": 10497,
      "wrapT": 10497
    }
  ],
  "scene": 0,
  "scenes": [
    {
      "name": "Sketchfab_Scene",
      "nodes": [
        0
      ]
    }
  ],
  "textures": [
    {
      "sampler": 0,
      "source": 0
    },
    {
      "sampler": 0,
      "source": 1
    },
    {
      "sampler": 0,
      "source": 2
    },
    {
      "sampler": 0,
      "source": 3
    }
  ]
}
